# xmcd CD database file
# Copyright (C) 1993-1998 Ti Kan
#
# Track frame offsets:
#	150
#	31325
#	53372
#	77635
#	111755
#	132592
#	156925
#	191790
#
# Disc length: 2817 seconds
#
# Revision: 0
# Processed by: cddbd v1.4PL0 Copyright (c) Steve Scherf et al.
# Submitted via: CDmax 1.5.3
#
DISCID=630aff08
DTITLE=Pinetop Perkins - Born in the Delta
DYEAR=1996
DGENRE=Piano
TTITLE0=Everyday I Have the Blues
TTITLE1=For You My Love
TTITLE2=Look on Yonder Wall
TTITLE3=Blues After Hours
TTITLE4=Murmur Law
TTITLE5=How Long, How Long Blues
TTITLE6=Baby, What You Want Me To Do ?
TTITLE7=Blues oh Blues
EXTD=
EXTT0=
EXTT1=
EXTT2=
EXTT3=
EXTT4=
EXTT5=
EXTT6=
EXTT7=
PLAYORDER=
